<?xml version="1.0" encoding="UTF-8"?>
<svg version="1.1" xmlns="http://www.w3.org/2000/svg" width="500" height="500">

<path d="M0 0 C5.9223046 5.030529 9.79336838 11.70433307 13.46875 18.45703125 C15.2707796 21.31245278 15.2707796 21.31245278 20.0234375 24.71875 C7.8134375 24.71875 -4.3965625 24.71875 -16.9765625 24.71875 C-15.6565625 23.39875 -14.3365625 22.07875 -12.9765625 20.71875 C-11.90417097 12.94391143 -14.69932908 6.51413904 -18.6640625 -0.09375 C-25.99986709 -7.03302461 -33.61109534 -8.60199037 -43.39453125 -8.4921875 C-52.92148596 -7.93116727 -61.83727913 -5.9167533 -68.9765625 0.71875 C-76.83087348 10.0118895 -77.92692199 19.84527137 -76.9765625 31.71875 C-74.93823571 42.10567272 -70.00889553 49.96090401 -61.5390625 56.28125 C-48.34430564 64.82475776 -33.85284194 70.29376204 -19.21850586 75.79931641 C-1.1309776 82.67293211 16.71770576 90.76475671 26.0234375 108.71875 C26.4565625 109.48960937 26.8896875 110.26046875 27.3359375 111.0546875 C32.38809134 121.89576762 31.88346043 138.25617582 28.3984375 149.53125 C27.28125 152.21875 27.28125 152.21875 26.0234375 154.71875 C25.36988281 156.0490625 25.36988281 156.0490625 24.703125 157.40625 C17.81058344 170.06140827 5.24114201 177.08056458 -8.2890625 181.078125 C-31.76627478 187.36512411 -57.12115002 187.31716794 -78.82421875 175.6328125 C-91.37712063 168.01085225 -102.29629783 156.96552806 -107.4140625 142.96875 C-109.22504804 139.20190009 -111.29491364 137.40391909 -114.55078125 134.8828125 C-115.02128906 134.49867188 -115.49179688 134.11453125 -115.9765625 133.71875 C-115.9765625 133.38875 -115.9765625 133.05875 -115.9765625 132.71875 C-103.4365625 132.71875 -90.8965625 132.71875 -77.9765625 132.71875 C-79.2965625 134.36875 -80.6165625 136.01875 -81.9765625 137.71875 C-84.49984679 142.76531857 -83.53669449 149.54379846 -82.17578125 154.828125 C-78.61566963 164.27281976 -72.86464692 172.03060925 -63.7890625 176.71875 C-62.20552991 177.43304663 -60.59960887 178.09946363 -58.9765625 178.71875 C-58.07550781 179.08226562 -57.17445313 179.44578125 -56.24609375 179.8203125 C-45.40215501 182.8001284 -31.98016785 181.74388924 -21.9765625 176.71875 C-19.02121188 174.97171991 -16.4909285 173.05230766 -13.9765625 170.71875 C-13.43386719 170.21730469 -12.89117187 169.71585938 -12.33203125 169.19921875 C-3.90713506 160.43306094 -1.59028336 148.49252041 -1.52563477 136.78759766 C-1.72935467 127.33309887 -5.06566126 120.2154096 -11.7890625 113.53125 C-23.51983337 104.15435091 -37.79808584 99.07635727 -51.64941406 93.74169922 C-65.35941801 88.4541916 -78.57258742 83.23503637 -89.9765625 73.71875 C-90.62882812 73.20183594 -91.28109375 72.68492187 -91.953125 72.15234375 C-98.93593972 66.01546474 -103.99191843 55.90475872 -104.9765625 46.71875 C-105.86049685 32.37181555 -103.0629987 20.38422905 -93.8203125 9.08203125 C-70.44254384 -15.69992156 -28.03399284 -19.83632706 0 0 Z " fill="#4F4F4F" transform="translate(302.9765625,140.28125)"/>
<path d="M0 0 C0.33 0 0.66 0 1 0 C1.34197019 3.12411592 1.67192253 6.24939708 2 9.375 C2.09539062 10.24511719 2.19078125 11.11523438 2.2890625 12.01171875 C2.91321115 18.03029503 3.11723906 23.95079012 3 30 C2.01 29.34 1.02 28.68 0 28 C-3.01428866 27.45194752 -5.03292439 27.44676305 -7.734375 28.9921875 C-16.19582091 35.61907213 -21.540241 46.46776035 -23 57 C-23.3621653 61.35541872 -23.49893609 65.69325282 -23.5625 70.0625 C-23.58940918 71.15046875 -23.61631836 72.2384375 -23.64404297 73.359375 C-23.57913329 87.2458588 -17.25117334 98.17489209 -7.9765625 108.18359375 C11.80825471 127.04904213 41.42851577 133.86178447 67.99609375 133.23828125 C95.13849072 132.15854255 122.25851533 123.95238351 143 106 C144.010625 105.2575 145.02125 104.515 146.0625 103.75 C155.73147238 95.56433588 163.98433394 81.61195913 165.20532227 68.85473633 C166.03417334 49.12129733 161.1996684 30.41241189 148.09765625 15.1484375 C145.1357521 12.1148299 141.98236421 9.35735212 138.6875 6.69140625 C137 5 137 5 137 2 C148.12155158 5.70718386 155.73315864 18.03468146 161 28 C162.92859185 32.2617176 164.54890823 36.55488344 166 41 C166.23332031 41.68835938 166.46664062 42.37671875 166.70703125 43.0859375 C173.40525175 64.3853149 168.19262322 87.3993827 159 107 C147.71234487 127.81161415 129.86531528 143.23432219 108 152 C107.16597656 152.35707031 106.33195313 152.71414063 105.47265625 153.08203125 C80.81507758 162.98214178 52.96848052 160.90235596 28.625 151.3125 C8.54479164 141.99890395 -8.13614348 126.95559091 -18 107 C-18.75603516 105.52080078 -18.75603516 105.52080078 -19.52734375 104.01171875 C-25.49186521 91.83476173 -27.55268028 80.19737598 -27.4375 66.625 C-27.42847656 65.34858643 -27.41945312 64.07217285 -27.41015625 62.75708008 C-27.05928556 43.67726805 -20.26756662 27.29932624 -9 12 C-8.22914063 10.94167969 -7.45828125 9.88335937 -6.6640625 8.79296875 C-2.27881866 2.83533016 -2.27881866 2.83533016 0 0 Z " fill="#505050" transform="translate(189,217)"/>
<path d="M0 0 C0.33 0 0.66 0 1 0 C1.34197019 3.12411592 1.67192253 6.24939708 2 9.375 C2.09539062 10.24511719 2.19078125 11.11523438 2.2890625 12.01171875 C2.91321115 18.03029503 3.11723906 23.95079012 3 30 C2.01 29.34 1.02 28.68 0 28 C-3.01428866 27.45194752 -5.03292439 27.44676305 -7.734375 28.9921875 C-16.11967283 35.55943403 -21.70280629 46.50685877 -23 57 C-23.4552326 65.99288836 -23.2513365 75.00312006 -23 84 C-23.66 84 -24.32 84 -25 84 C-25.495 84.99 -25.495 84.99 -26 86 C-31.52111396 62.03164114 -25.67943207 38.98927234 -13.46484375 18.4140625 C-12.04196514 16.21831111 -10.55161993 14.10682042 -9 12 C-8.22914063 10.94167969 -7.45828125 9.88335937 -6.6640625 8.79296875 C-2.27881866 2.83533016 -2.27881866 2.83533016 0 0 Z " fill="#565656" transform="translate(189,217)"/>
<path d="M0 0 C11.12155158 3.70718386 18.73315864 16.03468146 24 26 C25.92839924 30.26129199 27.57298502 34.54702553 29 39 C29.38027344 40.09570312 29.76054687 41.19140625 30.15234375 42.3203125 C31.16628257 46.72183493 31.00759281 50.47264188 30.625 54.9375 C30.56828125 55.71673828 30.5115625 56.49597656 30.453125 57.29882812 C30.31315654 59.20006639 30.15813968 61.10018686 30 63 C29.67 63 29.34 63 29 63 C28.96261719 62.20078125 28.92523438 61.4015625 28.88671875 60.578125 C27.72802329 41.22109495 21.17299346 22.05254632 6.49609375 8.7265625 C4.91509833 7.35587163 3.31416462 6.00757577 1.6875 4.69140625 C0 3 0 3 0 0 Z " fill="#5C5C5C" transform="translate(326,219)"/>
<path d="M0 0 C6.45353615 2.05764921 12.7361263 4.42383482 19 7 C19 7.99 19 8.98 19 10 C16.2100561 11.17094005 13.41821403 12.33690927 10.625 13.5 C9.8309375 13.83386719 9.036875 14.16773438 8.21875 14.51171875 C7.07792969 14.98544922 7.07792969 14.98544922 5.9140625 15.46875 C4.8614624 15.90864258 4.8614624 15.90864258 3.78759766 16.35742188 C2 17 2 17 0 17 C0 16.01 0 15.02 0 14 C3.96 12.35 7.92 10.7 12 9 C9.71540242 6.71540242 7.87462656 6.02870252 4.875 4.875 C3.50988281 4.34519531 3.50988281 4.34519531 2.1171875 3.8046875 C1.41851562 3.53914063 0.71984375 3.27359375 0 3 C0 2.01 0 1.02 0 0 Z " fill="#5F5F5F" transform="translate(410,254)"/>
<path d="M0 0 C0 0.99 0 1.98 0 3 C-1.28197266 3.52400391 -1.28197266 3.52400391 -2.58984375 4.05859375 C-3.69457031 4.51363281 -4.79929687 4.96867187 -5.9375 5.4375 C-7.03964844 5.88996094 -8.14179687 6.34242188 -9.27734375 6.80859375 C-11.86568916 7.74424608 -11.86568916 7.74424608 -13 9 C-8.71 10.65 -4.42 12.3 0 14 C0 14.99 0 15.98 0 17 C-4.40958108 16.33392561 -8.26572186 14.73375271 -12.3125 12.9375 C-12.95767578 12.65583984 -13.60285156 12.37417969 -14.26757812 12.08398438 C-15.84698358 11.3937257 -17.42376493 10.69746802 -19 10 C-19 9.01 -19 8.02 -19 7 C-16.2100561 5.82905995 -13.41821403 4.66309073 -10.625 3.5 C-9.43390625 2.99919922 -9.43390625 2.99919922 -8.21875 2.48828125 C-7.45820312 2.17246094 -6.69765625 1.85664063 -5.9140625 1.53125 C-5.2123291 1.23798828 -4.5105957 0.94472656 -3.78759766 0.64257812 C-2 0 -2 0 0 0 Z " fill="#5F5F5F" transform="translate(90,254)"/>
<path d="M0 0 C0.66 0 1.32 0 2 0 C0.64909235 6.49878391 -1.07830246 12.75103319 -3.125 19.0625 C-3.40214844 19.92810547 -3.67929687 20.79371094 -3.96484375 21.68554688 C-4.63968962 23.7915314 -5.31811341 25.89628687 -6 28 C-6.99 28 -7.98 28 -9 28 C-7.28246085 21.40911806 -5.39001296 14.88021736 -3.375 8.375 C-3.15690674 7.66408203 -2.93881348 6.95316406 -2.71411133 6.22070312 C-1.11975531 1.11975531 -1.11975531 1.11975531 0 0 Z " fill="#5F5F5F" transform="translate(399,245)"/>
<path d="M0 0 C0.99 0 1.98 0 3 0 C4.66413655 3.3282731 3.81867406 6.99733973 3.5625 10.625 C3.51029297 11.42679687 3.45808594 12.22859375 3.40429688 13.0546875 C3.27451629 15.03679103 3.13790265 17.01844499 3 19 C2.67 19 2.34 19 2 19 C1.93941406 18.13117188 1.87882812 17.26234375 1.81640625 16.3671875 C1.73261719 15.21476562 1.64882813 14.06234375 1.5625 12.875 C1.48128906 11.73804688 1.40007812 10.60109375 1.31640625 9.4296875 C1.02269035 6.2459522 0.56875687 3.14489093 0 0 Z " fill="#727272" transform="translate(353,263)"/>
<path d="M0 0 C0.33 0 0.66 0 1 0 C0.125 7.75 0.125 7.75 -1 10 C-1.99 10 -2.98 10 -4 10 C-3.52449439 8.51965236 -3.04448784 7.04074979 -2.5625 5.5625 C-2.29566406 4.73878906 -2.02882813 3.91507812 -1.75390625 3.06640625 C-1 1 -1 1 0 0 Z " fill="#6E6E6E" transform="translate(394,263)"/>
<path d="M0 0 C-0.33 0.99 -0.66 1.98 -1 3 C-4.5625 4.1875 -4.5625 4.1875 -8 5 C-8 4.01 -8 3.02 -8 2 C-5.09399739 0.74335022 -3.20395416 0 0 0 Z " fill="#5C5C5C" transform="translate(418,266)"/>
</svg>
